<svg t="1665391044682" class="icon" viewBox="0 0 1024 1024" version="1.1" xmlns="http://www.w3.org/2000/svg" p-id="18063" width="200" height="200"><path d="M789.333333 64H405.333333v896h384c70.698667 0 128-58.709333 128-131.114667V195.114667C917.333333 122.709333 860.032 64 789.333333 64z m21.333334 315.264C810.666667 405.44 791.573333 426.666667 768 426.666667H554.666667c-23.573333 0-42.666667-21.226667-42.666667-47.402667v-118.528c0-26.176 19.093333-47.402667 42.666667-47.402667h213.333333c23.573333 0 42.666667 21.226667 42.666667 47.402667v118.528zM234.666667 64C163.968 64 106.666667 122.709333 106.666667 195.114667v633.749333C106.666667 901.290667 163.968 960 234.666667 960h128V64h-128z m42.666666 655.616H192c-17.685333 0-32-14.677333-32-32.789333s14.314667-32.789333 32-32.789334h85.333333c17.685333 0 32 14.677333 32 32.789334s-14.314667 32.789333-32 32.789333z m0-174.826667H192c-17.685333 0-32-14.677333-32-32.789333s14.314667-32.789333 32-32.789333h85.333333c17.685333 0 32 14.677333 32 32.789333s-14.314667 32.789333-32 32.789333z m0-174.848H192c-17.685333 0-32-14.677333-32-32.789333s14.314667-32.789333 32-32.789333h85.333333c17.685333 0 32 14.677333 32 32.789333s-14.314667 32.789333-32 32.789333z" p-id="18064"></path></svg>