<svg t="1665390724008" class="icon" viewBox="0 0 1024 1024" version="1.1" xmlns="http://www.w3.org/2000/svg" p-id="1248" width="200" height="200"><path d="M810.666667 170.666667a128 128 0 0 1 128 128v426.666666a128 128 0 0 1-128 128H213.333333a128 128 0 0 1-128-128V298.666667a128 128 0 0 1 128-128h597.333334z m-347.008 359.594666a85.333333 85.333333 0 0 0-115.370667-0.384l-5.205333 5.205334-148.949334 161.28a42.666667 42.666667 0 0 0 26.368 71.338666l4.949334 0.298667H801.706667a42.666667 42.666667 0 0 0 32-70.826667l-97.194667-110.336a41.386667 41.386667 0 0 0-55.466667-0.768l-3.754666 3.754667-77.952 73.514667-2.005334 2.56-130.730666-132.778667-2.901334-2.858667zM704 341.333333a64 64 0 1 0 0 128 64 64 0 0 0 0-128z" p-id="1249"></path></svg>